<svg viewBox="0 0 1400 800" xmlns="http://www.w3.org/2000/svg"><g opacity=".2"><path d="m355.5 477.1h624.1v114.93h-624.1z" fill="#74c595"/><g fill="#fff" stroke="#74c595" stroke-miterlimit="10" stroke-width="2.224699"><ellipse cx="357.2" cy="534.5" rx="37.9" ry="57.5"/><ellipse cx="979.4" cy="534.5" rx="37.9" ry="57.5"/></g></g><path d="m250.8 572.8v-116.4a9.1 9.1 0 0 0 -9.1-9.1h-175.6a9.2 9.2 0 0 0 -9.2 9.1v116.4h-12.3c1 8.3 6.8 14.9 13.8 14.9h190.1c6.8 0 12.7-6.6 13.8-14.9zm-183.5-115.1h173.1v115.1h-173.1z" fill="#74c595"/><path d="m1096.2 500.5-845 3.4" fill="none" stroke="#acabab" stroke-miterlimit="10" stroke-width="4.480947"/><path d="m1081.3 482.2-3 3.2 16.2 15.1-16.2 15.1 3.2 3.2 19.6-18.3z" fill="#acabab"/><path d="m290.2 574.1 818.8-3.4" fill="none" stroke="#acabab" stroke-miterlimit="10" stroke-width="4.382843"/><path d="m304.7 592 2.9-3.2-15.9-14.7 15.9-14.7-3.1-3.2-19.2 17.9z" fill="#acabab"/><path d="m728.9 507.1v-30.5a29.7 29.7 0 0 0 -29.6-29.3h-25.4a29.3 29.3 0 0 0 -29.3 29.3v30.5a57.9 57.9 0 1 0 84.3 0zm-75.4-30.5a20.6 20.6 0 0 1 20.4-20.6h25.4a20.8 20.8 0 0 1 20.6 20.6v22.6a58.1 58.1 0 0 0 -66.4 0zm33.2 119.7a49.5 49.5 0 0 1 -41.3-76.9 46.7 46.7 0 0 1 8.1-9.1 49 49 0 0 1 66.4 0 50.7 50.7 0 0 1 7.5 8.5 48.8 48.8 0 0 1 8.7 27.9 49.7 49.7 0 0 1 -49.4 49.6zm0-91.3a41.7 41.7 0 1 0 41.7 41.7 41.7 41.7 0 0 0 -41.7-41.7zm5.6 47.8v15.6h-7.3v-15.6a11.7 11.7 0 1 1 7.3 0z" fill="#74c595"/><path d="m489.4 375.1h-114.7a27.6 27.6 0 0 1 -26-36l13.2-42.1a50.2 50.2 0 0 1 25.8-28.3h88.9a50.5 50.5 0 0 1 25.6 28.3l13.2 42.1a27.5 27.5 0 0 1 -17.6 34.7 29.5 29.5 0 0 1 -8.4 1.3z" fill="#f26a75"/><path d="m490.5 251h-117.5l36.4-55.1a27.1 27.1 0 0 1 22.3-12.6h.7a27.6 27.6 0 0 1 22.7 12.8z" fill="#f26a75"/><path d="m492.2 254.2c0 3.4-1.5 8.8-8.3 13.6h-.2l-47.7 35.8a6.2 6.2 0 0 1 -3.2 1.1h-.9a3.8 3.8 0 0 1 -2.5-.9l-23.8-17.2-24.7-18.3h-.2c-7.3-4.9-8.8-10.2-8.8-13.9a15.1 15.1 0 0 1 3.2-8.9c5.8-7.2 17.5-11.7 29.6-14v13.6h54.7v-13.9c12.3 2.4 24.1 6.8 29.8 14.3a15.2 15.2 0 0 1 3 8.7z" fill="#fff" stroke="#f26a75" stroke-miterlimit="10" stroke-width="10.642062"/><path d="m464.1 234.2v16.8c.8 12.4-14.7 37.1-31.9 37.1s-32.2-23.7-32.2-36.9v-17a153.9 153.9 0 0 1 64.1 0z" fill="#fff" stroke="#f26a75" stroke-miterlimit="10" stroke-width="6.385237"/><path d="m404.3 247a5.3 5.3 0 0 0 -4.3 4.5 4.5 4.5 0 0 0 0 2.3l9-7.7a18.6 18.6 0 0 0 -4.7.9z" fill="#f26a75"/><path d="m404.3 247a5.3 5.3 0 0 0 -4.3 4.5 4.5 4.5 0 0 0 0 2.3l9-7.7a18.6 18.6 0 0 0 -4.7.9z" fill="#f26a75" opacity=".73"/><path d="m422.2 247.4a10.9 10.9 0 0 0 -3.9-.8l-15.9 13.4.6.6a8.8 8.8 0 0 0 3.6 2.4l3.6.8h2.6a18.7 18.7 0 0 0 8.9-2.8 13.3 13.3 0 0 0 4.3-9.3 5.7 5.7 0 0 0 -3.8-4.3z" fill="#f26a75"/><path d="m422.2 247.4a10.9 10.9 0 0 0 -3.9-.8l-15.9 13.4.6.6a8.8 8.8 0 0 0 3.6 2.4l3.6.8h2.6a18.7 18.7 0 0 0 8.9-2.8 13.3 13.3 0 0 0 4.3-9.3 5.7 5.7 0 0 0 -3.8-4.3z" fill="#f26a75" opacity=".73"/><path d="m412.8 246.1-12.4 10.5.7 1.2 13.8-11.7z" fill="#f26a75"/><path d="m412.8 246.1-12.4 10.5.7 1.2 13.8-11.7z" fill="#f26a75" opacity=".73"/><path d="m442 247.4a5.8 5.8 0 0 0 -3.7 4.3 18.7 18.7 0 0 0 .7 4l11.5-9.6a39.7 39.7 0 0 0 -8.5 1.3z" fill="#f26a75"/><path d="m442 247.4a5.8 5.8 0 0 0 -3.7 4.3 18.7 18.7 0 0 0 .7 4l11.5-9.6a39.7 39.7 0 0 0 -8.5 1.3z" fill="#f26a75" opacity=".73"/><path d="m454.3 246.1-14.3 12 .9 1.2 15.3-12.9z" fill="#f26a75"/><path d="m454.3 246.1-14.3 12 .9 1.2 15.3-12.9z" fill="#f26a75" opacity=".73"/><path d="m464.3 251.5a5.7 5.7 0 0 0 -4.3-4.5h-.4l-17 14.2a15.4 15.4 0 0 0 8.5 2.8h2.8a15.5 15.5 0 0 0 3.6-.8 8 8 0 0 0 3.8-2.4 12.6 12.6 0 0 0 3-9.3z" fill="#f26a75"/><path d="m464.3 251.5a5.7 5.7 0 0 0 -4.3-4.5h-.4l-17 14.2a15.4 15.4 0 0 0 8.5 2.8h2.8a15.5 15.5 0 0 0 3.6-.8 8 8 0 0 0 3.8-2.4 12.6 12.6 0 0 0 3-9.3z" fill="#f26a75" opacity=".73"/><path d="m409 246.1-9 7.7a27 27 0 0 0 .4 2.8l12.4-10.5z" fill="#f26a75"/><path d="m414.9 246.1-13.8 11.7a3.8 3.8 0 0 0 1.3 2.2l15.9-13.4z" fill="#f26a75"/><path d="m450.5 246.1-11.5 9.6a24.4 24.4 0 0 0 1 2.4l14.3-12z" fill="#f26a75"/><path d="m456.2 246.4-15.3 12.9a4.6 4.6 0 0 0 1.7 1.7l17-14.2z" fill="#f26a75"/><path d="m398.3 247.8c.9 0 1.9-.4 1.9-.6a2.6 2.6 0 0 0 -2.1-.2c-1.1 0-1.9.2-1.9.4s1.1.4 2.1.4z" fill="#f26a75"/><path d="m466 246.8c-1.1 0-1.9.2-1.9.4s.8.6 1.9.6 1.9-.2 1.9-.4-.8-.4-1.9-.6z" fill="#f26a75"/><path d="m448.8 244.4c-7.1.5-13.2 3-16.9 3s-7.6-2.3-16.8-3a94.8 94.8 0 0 0 -20.6 1.3l.4 3.6a2.9 2.9 0 0 1 2.4 2.2c.8 2.5.6 7 3.1 9.7a14.4 14.4 0 0 0 9.6 3.9c3.2.2 10.2-.2 14.3-3.9a17.7 17.7 0 0 0 3.6-5.3c.9-2.1 1.5-4.2 2.6-4.9h1.4a3.4 3.4 0 0 1 2.2.5 54.3 54.3 0 0 1 3 5.9 14.8 14.8 0 0 0 3.1 4.3c3.7 3.2 11.5 3.8 14.3 3.6a12.7 12.7 0 0 0 8.7-3.4 11.4 11.4 0 0 0 2.4-4.1c.6-2.1.8-4.4 1.3-5.9a3 3 0 0 1 2.3-2.4l.4-3.6a121.3 121.3 0 0 0 -20.8-1.5zm-27.1 16.6a18.7 18.7 0 0 1 -8.9 2.8h-2.6l-3.6-.8a8.8 8.8 0 0 1 -3.6-2.4l-.6-.6a3.8 3.8 0 0 1 -1.3-2.2l-.7-1.2a27 27 0 0 1 -.4-2.8 4.5 4.5 0 0 1 0-2.3 5.3 5.3 0 0 1 4.3-4.5 18.6 18.6 0 0 1 4.7-.9h5.9l3.4.5a10.9 10.9 0 0 1 3.9.8 5.7 5.7 0 0 1 3.8 4.3 13.3 13.3 0 0 1 -4.3 9.3zm-25.5-13.6c0-.2.8-.4 1.9-.4a2.6 2.6 0 0 1 2.1.2c0 .2-1 .6-1.9.6s-1.9 0-2.1-.4zm69.8.4c-1.1 0-1.9-.2-1.9-.6s.8-.4 1.9-.4 1.9.4 1.9.6-.8.4-1.9.4zm-8.5 15.2a15.5 15.5 0 0 1 -3.6.8h-2.8a15.4 15.4 0 0 1 -8.5-2.8 4.6 4.6 0 0 1 -1.7-1.7l-.9-1.2a24.4 24.4 0 0 1 -1-2.4 18.7 18.7 0 0 1 -.7-4 5.8 5.8 0 0 1 3.7-4.3 39.7 39.7 0 0 1 8.5-1.3h5.7l3.4.5h.4a5.6 5.6 0 0 1 4.3 4.4 12.8 12.8 0 0 1 -3 9.2 8.8 8.8 0 0 1 -3.8 2.8z" fill="#f26a75"/><path d="m474.9 302.5h-85.7a4.5 4.5 0 0 0 -4.7 4.3v62.6h95.1v-62.6a4.5 4.5 0 0 0 -4.6-4.3z" fill="#fff"/><path d="m459.8 385.5 78.8 78.8 215.4-215.6" fill="none" stroke="#f26a75" stroke-miterlimit="10" stroke-width="2.128412"/><path d="m755.3 260-2.2-.2.4-10.5-10.6.5v-2.2l12.8-.4z" fill="#f26a75"/><g fill="#404343"><path d="m488.4 625.8c6.8 0 10.8 4 10.8 11.2s-4 11.3-10.8 11.3h-8.6v-22.5zm-3.9 18.6h3.4c4.2 0 6.5-2.5 6.5-7.4s-2.4-7.3-6.5-7.3h-3.4z"/><path d="m502.2 648.3v-22.5h4l10.5 14.7h.1v-14.7h4.5v22.5h-3.9l-10.5-14.7h-.1v14.7z"/><path d="m528.7 641.9c.3 1.9 2.2 3 4.8 3s4.2-1.2 4.2-2.8-1.1-2.4-3.9-3l-2.4-.4c-4.5-.9-6.7-3.1-6.7-6.4s3.6-6.9 8.6-6.9 8.6 2.8 8.7 6.9h-4.5c-.1-1.9-1.8-3.1-4.2-3.1s-3.9 1.1-3.9 2.8 1.1 2.2 3.8 2.8l2.4.4c4.7 1 6.8 2.9 6.8 6.3s-3.4 7.2-9.1 7.2-8.9-2.5-9.1-6.8z"/><path d="m557 648.3v-18.6h-6.5v-3.9h17.8v3.9h-6.6v18.6z"/><path d="m568.4 631.6h4.4v3h.1a4 4 0 0 1 4-3.3l1.3.2v4l-1.7-.2a3.3 3.3 0 0 0 -3.6 3.7v9.3h-4.5z"/><path d="m579 643.5c0-3 2.3-4.8 6.5-5l4.2-.3v-1.1a2.5 2.5 0 0 0 -2.8-2.5c-1.7 0-2.8.9-3 2.1h-4.2c.2-3.2 3-5.5 7.4-5.5s7.1 2.3 7.1 5.6v11.5h-4.4v-2.5h-.1a5.6 5.6 0 0 1 -5.1 2.8c-3.2 0-5.6-2-5.6-5.1zm10.7-1.3v-1.2l-3.5.2c-1.7.1-2.7.9-2.7 2.1s1 2 2.6 2a3.3 3.3 0 0 0 3.6-3.1z"/><path d="m598.4 635h-2.3v-3.3h2.3v-1.3c0-3.3 1.5-4.8 5.5-4.8l2.3.2v3h-1.2c-1.5 0-2.2.7-2.2 1.9v1.1h3.3v3.2h-3.2v13.3h-4.5z"/><path d="m609.8 635h-2.3v-3.3h2.3v-1.3c0-3.3 1.5-4.8 5.5-4.8l2.3.2v3h-1.2c-1.5 0-2.2.7-2.2 1.9v1.1h3.3v3.2h-3.2v13.3h-4.5z"/><path d="m619.9 627a2.4 2.4 0 1 1 4.7 0 2.3 2.3 0 0 1 -2.3 2.3 2.3 2.3 0 0 1 -2.4-2.3zm.1 4.6h4.6v16.7h-4.6z"/><path d="m638.6 637.8a3.3 3.3 0 0 0 -3.3-3c-2.3 0-3.7 1.9-3.7 5.2s1.4 5.1 3.7 5.1a3.2 3.2 0 0 0 3.3-2.9h4.2c-.2 4-3.2 6.5-7.6 6.5s-8.2-3.3-8.2-8.7 3.2-8.8 8.2-8.8 7.4 2.8 7.6 6.6z"/><path d="m650.8 640c0-5.5 3.2-8.8 8.2-8.8s8.3 3.3 8.3 8.8-3.2 8.7-8.3 8.7-8.2-3.2-8.2-8.7zm11.9 0c0-3.4-1.4-5.3-3.7-5.3s-3.6 1.9-3.6 5.3 1.4 5.2 3.6 5.2 3.7-1.9 3.7-5.2z"/><path d="m678.9 648.3h-5.2l-5.8-16.7h4.9l3.5 12.7h.1l3.4-12.7h4.8z"/><path d="m701 643.2c-.5 3.3-3.5 5.5-7.6 5.5s-8.3-3.3-8.3-8.6 3.1-8.9 8.1-8.9 7.9 3.3 7.9 8.4v1.4h-11.5v.3a3.7 3.7 0 0 0 3.8 4 3.3 3.3 0 0 0 3.4-2.1zm-11.4-5h7.2a3.5 3.5 0 0 0 -3.6-3.6 3.6 3.6 0 0 0 -3.6 3.6z"/><path d="m703.5 631.6h4.4v3h.1a4 4 0 0 1 4-3.3l1.3.2v4l-1.7-.2a3.3 3.3 0 0 0 -3.6 3.7v9.3h-4.5z"/><path d="m727.2 648.3v-18.6h-6.5v-3.9h17.8v3.9h-6.5v18.6z"/><path d="m755.7 648.3h-14.6v-22.5h4.7v18.6h9.9z"/><path d="m762.1 641.9c.3 1.9 2.2 3 4.7 3s4.3-1.2 4.3-2.8-1.1-2.4-3.9-3l-2.4-.4c-4.5-.9-6.7-3.1-6.7-6.4s3.6-6.9 8.6-6.9 8.6 2.8 8.7 6.9h-4.5c-.1-1.9-1.8-3.1-4.2-3.1s-3.9 1.1-3.9 2.8 1.1 2.2 3.8 2.8l2.4.4c4.7 1 6.8 2.9 6.8 6.3s-3.5 7.2-9.1 7.2-8.9-2.5-9.1-6.8z"/><path d="m784 640c0-5.5 3.3-8.8 8.3-8.8s8.3 3.3 8.3 8.8-3.2 8.7-8.3 8.7-8.3-3.2-8.3-8.7zm12 0c0-3.4-1.5-5.3-3.7-5.3s-3.7 1.9-3.7 5.3 1.4 5.2 3.7 5.2 3.7-1.9 3.7-5.2z"/><path d="m802.9 631.6h4.4v3h.1a4.1 4.1 0 0 1 4-3.3l1.3.2v4l-1.6-.2c-2.3 0-3.6 1.3-3.6 3.7v9.3h-4.6z"/><path d="m836.2 648.3v-9.5h-10.2v9.5h-4.7v-22.5h4.7v9.2h10.2v-9.2h4.7v22.5z"/><path d="m850 648.3v-18.6h-6.5v-3.9h17.8v3.9h-6.5v18.6z"/><path d="m869.3 648.3v-18.6h-6.5v-3.9h17.7v3.9h-6.5v18.6z"/><path d="m892.3 625.8c4.6 0 7.8 3.1 7.8 7.7s-3.3 7.7-8 7.7h-4.2v7.1h-4.8v-22.5zm-4.4 11.8h3.1c2.8 0 4.3-1.5 4.3-4.1s-1.5-4-4.2-4h-3.2z"/><path d="m906.5 641.9c.3 1.9 2.2 3 4.8 3s4.2-1.2 4.2-2.8-1.1-2.4-3.9-3l-2.4-.4c-4.5-.9-6.7-3.1-6.7-6.4s3.6-6.9 8.6-6.9 8.6 2.8 8.7 6.9h-4.5c-.1-1.9-1.8-3.1-4.2-3.1s-3.9 1.1-3.9 2.8 1.1 2.2 3.8 2.8l2.4.4c4.8 1 6.8 2.9 6.8 6.3s-3.4 7.2-9.1 7.2-8.9-2.5-9.1-6.8z"/></g><path d="m1381.9 478.4h-229.5a8 8 0 0 0 -8 8.1v78.5a8 8 0 0 0 8 8.1h229.5a8.1 8.1 0 0 0 8.1-8.1v-78.5a8.1 8.1 0 0 0 -8.1-8.1zm-1.1 85.5h-227.2v-76.3h227.2zm-116.4-23.3v-29.6a2.8 2.8 0 0 1 2.8-2.8 2.7 2.7 0 0 1 2.7 2.8v29.6a2.7 2.7 0 0 1 -2.7 2.7 2.8 2.8 0 0 1 -2.8-2.7zm20.6 0v-29.6a2.8 2.8 0 1 1 5.6 0v29.6a2.8 2.8 0 0 1 -5.6 0zm20.6 0v-29.6a2.8 2.8 0 0 1 5.6 0v29.6a2.8 2.8 0 0 1 -5.6 0zm20.6 0v-29.6a2.8 2.8 0 0 1 5.6 0v29.6a2.8 2.8 0 0 1 -5.6 0zm-144.2 0v-29.6a2.8 2.8 0 1 1 5.5 0v29.6a2.8 2.8 0 0 1 -5.5 0zm20.6 0v-29.6a2.8 2.8 0 1 1 5.5 0v29.6a2.8 2.8 0 0 1 -5.5 0zm20.6 0v-29.6a2.8 2.8 0 1 1 5.5 0v29.6a2.8 2.8 0 0 1 -5.5 0zm20.6 0v-29.6a2.8 2.8 0 1 1 5.5 0v29.6a2.8 2.8 0 0 1 -5.5 0zm103 0v-29.6a2.8 2.8 0 0 1 5.6 0v29.6a2.8 2.8 0 0 1 -5.6 0zm6.1 45.5a4.6 4.6 0 0 1 -4.6 4.6h-162.3a4.7 4.7 0 0 1 0-9.3h162.3a4.6 4.6 0 0 1 4.6 4.7z" fill="#717171"/><path d="m1185.2 623.5c6.8 0 10.8 4 10.8 11.1s-4 11.4-10.8 11.4h-8.6v-22.5zm-3.8 18.6h3.3c4.2 0 6.5-2.6 6.5-7.4s-2.4-7.4-6.5-7.4h-3.3z" fill="#404343"/><path d="m1199 646v-22.5h4l10.5 14.6h.1v-14.6h4.6v22.5h-4l-10.5-14.8h-.1v14.8z" fill="#404343"/><path d="m1225.5 639.6c.3 1.9 2.2 3 4.8 3s4.2-1.2 4.2-2.9-1.1-2.3-3.9-2.9l-2.4-.5c-4.5-.9-6.7-3-6.7-6.4s3.6-6.8 8.6-6.8 8.6 2.7 8.7 6.9h-4.5c-.1-2-1.8-3.1-4.2-3.1s-3.9 1.1-3.9 2.7 1.1 2.3 3.8 2.8l2.4.5c4.7.9 6.8 2.9 6.8 6.3s-3.4 7.2-9.1 7.2-8.9-2.6-9.1-6.8z" fill="#404343"/><path d="m1253.1 646h-4.7v-22.5h9.3c5.2 0 8.1 2.7 8.1 7.1a6.6 6.6 0 0 1 -4.1 6.4l4.8 9h-5.4l-4.2-8.3h-3.8zm0-11.7h4.1c2.4 0 3.8-1.3 3.8-3.6a3.5 3.5 0 0 0 -3.8-3.6h-4.1z" fill="#404343"/><path d="m1283.6 640.9c-.5 3.3-3.5 5.5-7.6 5.5s-8.2-3.3-8.2-8.7 3.1-8.8 8-8.8 8 3.3 8 8.4v1.4h-11.6v.3a3.8 3.8 0 0 0 3.9 4 3.4 3.4 0 0 0 3.4-2.1zm-11.3-5h7.1a3.4 3.4 0 0 0 -3.5-3.6 3.6 3.6 0 0 0 -3.6 3.6z" fill="#404343"/><path d="m1292.9 628.9c4.3 0 6.9 2.2 7 5.5h-4.2c-.1-1.4-1.1-2.3-2.8-2.3s-2.7.7-2.7 1.8.7 1.5 2.4 1.8l2.8.6c3.5.8 5 2.1 5 4.6s-3.1 5.5-7.4 5.5-7.3-2.2-7.6-5.5h4.5c.3 1.5 1.3 2.3 3.1 2.3s2.8-.7 2.8-1.8-.6-1.4-2.2-1.8l-2.9-.6q-4.8-1.1-4.8-4.8c0-3.2 2.7-5.3 7-5.3z" fill="#404343"/><path d="m1302 637.6c0-5.4 3.3-8.7 8.3-8.7s8.3 3.3 8.3 8.7-3.2 8.8-8.3 8.8-8.3-3.3-8.3-8.8zm11.9 0c0-3.3-1.4-5.2-3.6-5.2s-3.7 1.9-3.7 5.2 1.4 5.3 3.7 5.3 3.6-1.9 3.6-5.3z" fill="#404343"/><path d="m1321 623.5h4.6v22.5h-4.6z" fill="#404343"/><path d="m1338.2 646h-5.1l-5.8-16.8h4.9l3.5 12.8h.1l3.4-12.8h4.8z" fill="#404343"/><path d="m1360.4 640.9c-.5 3.3-3.5 5.5-7.7 5.5s-8.2-3.3-8.2-8.7 3.1-8.8 8.1-8.8 7.9 3.3 7.9 8.4v1.4h-11.5v.3a3.7 3.7 0 0 0 3.8 4 3.3 3.3 0 0 0 3.4-2.1zm-11.4-5h7.1a3.4 3.4 0 0 0 -3.5-3.6 3.6 3.6 0 0 0 -3.6 3.6z" fill="#404343"/><path d="m1362.9 629.2h4.4v3.1h.1c.6-2.2 2-3.3 4-3.3l1.2.2v4a3.5 3.5 0 0 0 -1.6-.3 3.3 3.3 0 0 0 -3.6 3.7v9.4h-4.5z" fill="#404343"/><path d="m396.6 157.2v-9.5h-10.2v9.5h-4.7v-22.5h4.7v9.1h10.2v-9.1h4.7v22.5z" fill="#404343"/><path d="m403.7 152.4c0-3 2.3-4.8 6.5-5.1l4.2-.2v-1.1c0-1.6-1.1-2.5-2.8-2.5s-2.8.9-3 2.1h-4.2c.2-3.3 3-5.5 7.4-5.5s7.1 2.2 7.1 5.6v11.5h-4.4v-2.5h-.1a5.8 5.8 0 0 1 -5.1 2.8c-3.2 0-5.6-2.1-5.6-5.1zm10.7-1.3v-1.2l-3.5.2c-1.7.1-2.7.9-2.7 2.1s1 2 2.6 2a3.3 3.3 0 0 0 3.6-3.1z" fill="#404343"/><path d="m432.8 146.7a3.2 3.2 0 0 0 -3.3-3c-2.3 0-3.7 1.9-3.7 5.1s1.4 5.2 3.7 5.2a3.2 3.2 0 0 0 3.3-2.9h4.3c-.3 3.9-3.2 6.5-7.6 6.5s-8.3-3.3-8.3-8.8 3.2-8.7 8.2-8.7 7.4 2.8 7.6 6.6z" fill="#404343"/><path d="m449.7 140.5h5.2l-6.4 7.2 6.7 9.5h-5.3l-4.8-6.8-1.2 1.3v5.5h-4.5v-22.5h4.5v12.5h.1z" fill="#404343"/><path d="m471 152.1c-.5 3.3-3.5 5.5-7.7 5.5s-8.2-3.3-8.2-8.7 3.1-8.8 8.1-8.8 7.9 3.3 7.9 8.4v1.4h-11.5v.3a3.7 3.7 0 0 0 3.8 4 3.3 3.3 0 0 0 3.4-2.1zm-11.4-5h7.1a3.5 3.5 0 0 0 -3.5-3.6 3.6 3.6 0 0 0 -3.6 3.6z" fill="#404343"/><path d="m473.5 140.5h4.4v3h.1a4 4 0 0 1 4-3.3l1.2.2v4a3.5 3.5 0 0 0 -1.6-.3c-2.3 0-3.6 1.4-3.6 3.8v9.3h-4.5z" fill="#404343"/><path d="m134.4 648.3v-8.4l-7.8-14.1h5.1l5.1 9.6h.1l5-9.6h5.1l-7.9 14.1v8.4z" fill="#404343"/><path d="m144.9 640c0-5.5 3.2-8.8 8.3-8.8s8.3 3.3 8.3 8.8-3.3 8.7-8.3 8.7-8.3-3.2-8.3-8.7zm11.9 0c0-3.4-1.4-5.3-3.6-5.3s-3.7 1.9-3.7 5.3 1.4 5.2 3.7 5.2 3.6-1.9 3.6-5.2z" fill="#404343"/><path d="m179.3 648.3h-4.4v-3h-.1a5.2 5.2 0 0 1 -5.1 3.4c-3.6 0-6-2.4-6-6.3v-10.8h4.6v9.8c0 2.3 1.1 3.5 3.1 3.5s3.3-1.5 3.3-3.7v-9.6h4.6z" fill="#404343"/></svg>